<?xml version="1.0"?>
<svg width="1000" height="1333" viewBox="0 0 1000 1333" 
     xmlns="http://www.w3.org/2000/svg"
     shape-rendering="crispEdges">
<polygon points="509,652 484,696 526,652" style="fill:rgb(74,65,58)"/>
<polygon points="509,652 480,680 484,696" style="fill:rgb(82,73,63)"/>
<polygon points="484,696 526,726 526,652" style="fill:rgb(114,107,105)"/>
<polygon points="526,726 574,656 526,652" style="fill:rgb(132,136,146)"/>
<polygon points="526,726 582,719 574,656" style="fill:rgb(165,166,171)"/>
<polygon points="455,765 512,780 526,726" style="fill:rgb(222,220,215)"/>
<polygon points="526,726 547,796 582,719" style="fill:rgb(240,242,244)"/>
<polygon points="574,656 570,605 526,652" style="fill:rgb(100,101,109)"/>
<polygon points="526,652 540,553 509,652" style="fill:rgb(121,127,139)"/>
<polygon points="644,644 570,605 574,656" style="fill:rgb(134,136,144)"/>
<polygon points="480,680 455,765 484,696" style="fill:rgb(169,168,170)"/>
<polygon points="484,696 455,765 526,726" style="fill:rgb(159,152,146)"/>
<polygon points="576,865 547,796 512,780" style="fill:rgb(173,162,144)"/>
<polygon points="512,780 547,796 526,726" style="fill:rgb(240,241,240)"/>
<polygon points="677,696 644,644 582,719" style="fill:rgb(194,195,198)"/>
<polygon points="582,719 644,644 574,656" style="fill:rgb(153,157,166)"/>
<polygon points="675,633 540,553 570,605" style="fill:rgb(220,222,224)"/>
<polygon points="570,605 540,553 526,652" style="fill:rgb(137,143,154)"/>
<polygon points="509,652 376,568 480,680" style="fill:rgb(106,107,112)"/>
<polygon points="376,568 420,799 455,765" style="fill:rgb(195,197,200)"/>
<polygon points="455,765 418,816 512,780" style="fill:rgb(243,243,244)"/>
<polygon points="376,568 455,765 480,680" style="fill:rgb(153,156,164)"/>
<polygon points="516,443 528,537 571,396" style="fill:rgb(136,141,153)"/>
<polygon points="540,553 528,537 509,652" style="fill:rgb(124,130,142)"/>
<polygon points="547,796 648,765 582,719" style="fill:rgb(234,236,239)"/>
<polygon points="648,765 677,696 582,719" style="fill:rgb(241,243,245)"/>
<polygon points="420,799 418,816 455,765" style="fill:rgb(215,206,172)"/>
<polygon points="677,696 675,633 644,644" style="fill:rgb(198,201,204)"/>
<polygon points="644,644 675,633 570,605" style="fill:rgb(203,204,208)"/>
<polygon points="528,537 376,568 509,652" style="fill:rgb(113,117,128)"/>
<polygon points="420,799 333,881 418,816" style="fill:rgb(195,183,152)"/>
<polygon points="437,920 576,865 512,780" style="fill:rgb(230,233,235)"/>
<polygon points="547,796 665,810 648,765" style="fill:rgb(156,159,166)"/>
<polygon points="576,865 665,810 547,796" style="fill:rgb(216,220,222)"/>
<polygon points="648,765 751,691 677,696" style="fill:rgb(228,231,234)"/>
<polygon points="484,989 592,875 576,865" style="fill:rgb(116,120,125)"/>
<polygon points="576,865 659,845 665,810" style="fill:rgb(207,213,216)"/>
<polygon points="592,875 659,845 576,865" style="fill:rgb(159,164,169)"/>
<polygon points="333,881 410,875 418,816" style="fill:rgb(225,226,218)"/>
<polygon points="418,816 410,875 512,780" style="fill:rgb(237,240,242)"/>
<polygon points="665,810 751,691 648,765" style="fill:rgb(151,156,163)"/>
<polygon points="677,696 756,646 675,633" style="fill:rgb(217,218,216)"/>
<polygon points="714,857 751,691 665,810" style="fill:rgb(104,108,117)"/>
<polygon points="751,691 756,646 677,696" style="fill:rgb(234,235,235)"/>
<polygon points="571,396 528,537 605,390" style="fill:rgb(151,156,167)"/>
<polygon points="528,537 540,553 605,390" style="fill:rgb(193,196,201)"/>
<polygon points="528,537 516,443 376,568" style="fill:rgb(138,144,153)"/>
<polygon points="410,875 437,920 512,780" style="fill:rgb(208,210,214)"/>
<polygon points="592,875 695,866 659,845" style="fill:rgb(167,174,180)"/>
<polygon points="659,845 695,866 665,810" style="fill:rgb(174,181,187)"/>
<polygon points="709,885 695,866 592,875" style="fill:rgb(128,133,139)"/>
<polygon points="410,875 408,915 437,920" style="fill:rgb(166,169,175)"/>
<polygon points="333,881 408,915 410,875" style="fill:rgb(170,173,178)"/>
<polygon points="695,866 714,857 665,810" style="fill:rgb(124,128,133)"/>
<polygon points="236,626 333,881 420,799" style="fill:rgb(232,233,235)"/>
<polygon points="747,1005 709,885 687,1067" style="fill:rgb(104,108,117)"/>
<polygon points="695,866 709,885 714,857" style="fill:rgb(121,115,105)"/>
<polygon points="840,638 756,646 751,691" style="fill:rgb(178,176,171)"/>
<polygon points="840,638 788,618 756,646" style="fill:rgb(205,207,211)"/>
<polygon points="756,646 788,618 675,633" style="fill:rgb(192,195,201)"/>
<polygon points="840,638 751,691 847,728" style="fill:rgb(124,124,129)"/>
<polygon points="384,978 456,964 437,920" style="fill:rgb(197,202,206)"/>
<polygon points="437,920 456,964 576,865" style="fill:rgb(206,211,215)"/>
<polygon points="457,985 456,964 384,978" style="fill:rgb(205,210,214)"/>
<polygon points="295,473 236,626 376,568" style="fill:rgb(228,228,231)"/>
<polygon points="376,568 236,626 420,799" style="fill:rgb(225,226,228)"/>
<polygon points="605,390 540,553 675,633" style="fill:rgb(224,225,227)"/>
<polygon points="378,390 325,457 376,568" style="fill:rgb(177,177,180)"/>
<polygon points="378,390 376,568 516,443" style="fill:rgb(116,118,123)"/>
<polygon points="457,985 484,989 456,964" style="fill:rgb(167,173,179)"/>
<polygon points="456,964 484,989 576,865" style="fill:rgb(153,160,165)"/>
<polygon points="384,978 437,920 408,915" style="fill:rgb(164,169,174)"/>
<polygon points="325,457 295,473 376,568" style="fill:rgb(202,202,202)"/>
<polygon points="788,618 605,390 675,633" style="fill:rgb(225,226,228)"/>
<polygon points="230,907 297,906 333,881" style="fill:rgb(185,188,192)"/>
<polygon points="333,881 384,978 408,915" style="fill:rgb(132,136,144)"/>
<polygon points="289,928 384,978 333,881" style="fill:rgb(124,126,130)"/>
<polygon points="457,985 500,1042 484,989" style="fill:rgb(173,179,184)"/>
<polygon points="297,364 292,452 325,457" style="fill:rgb(202,203,207)"/>
<polygon points="325,457 292,452 295,473" style="fill:rgb(186,178,170)"/>
<polygon points="295,473 55,586 236,626" style="fill:rgb(229,230,234)"/>
<polygon points="847,728 751,691 845,763" style="fill:rgb(96,95,99)"/>
<polygon points="788,618 946,402 605,390" style="fill:rgb(225,226,230)"/>
<polygon points="395,367 378,390 516,443" style="fill:rgb(113,118,130)"/>
<polygon points="395,367 516,443 437,297" style="fill:rgb(109,115,129)"/>
<polygon points="845,763 751,691 714,857" style="fill:rgb(88,88,94)"/>
<polygon points="230,907 289,928 297,906" style="fill:rgb(156,159,166)"/>
<polygon points="297,906 289,928 333,881" style="fill:rgb(116,105,92)"/>
<polygon points="826,873 845,763 714,857" style="fill:rgb(103,106,115)"/>
<polygon points="571,339 516,443 571,396" style="fill:rgb(119,121,128)"/>
<polygon points="378,390 297,364 325,457" style="fill:rgb(222,223,226)"/>
<polygon points="578,316 571,339 605,390" style="fill:rgb(171,173,179)"/>
<polygon points="605,390 571,339 571,396" style="fill:rgb(142,145,153)"/>
<polygon points="865,750 868,715 847,728" style="fill:rgb(152,152,157)"/>
<polygon points="847,728 868,715 840,638" style="fill:rgb(143,147,157)"/>
<polygon points="852,848 865,750 845,763" style="fill:rgb(143,146,156)"/>
<polygon points="845,763 865,750 847,728" style="fill:rgb(134,124,115)"/>
<polygon points="437,297 386,355 395,367" style="fill:rgb(119,123,132)"/>
<polygon points="395,367 386,355 378,390" style="fill:rgb(181,187,194)"/>
<polygon points="512,1065 500,1042 368,1078" style="fill:rgb(124,122,118)"/>
<polygon points="368,1078 500,1042 457,985" style="fill:rgb(225,229,232)"/>
<polygon points="484,989 534,1068 592,875" style="fill:rgb(86,89,93)"/>
<polygon points="709,885 826,873 714,857" style="fill:rgb(102,106,116)"/>
<polygon points="798,949 826,873 709,885" style="fill:rgb(106,108,117)"/>
<polygon points="236,626 230,907 333,881" style="fill:rgb(232,234,236)"/>
<polygon points="289,928 357,1031 384,978" style="fill:rgb(111,116,124)"/>
<polygon points="826,873 852,848 845,763" style="fill:rgb(130,134,144)"/>
<polygon points="726,210 578,316 605,390" style="fill:rgb(227,228,232)"/>
<polygon points="571,339 437,297 516,443" style="fill:rgb(124,130,142)"/>
<polygon points="357,1031 457,985 384,978" style="fill:rgb(195,200,204)"/>
<polygon points="500,1042 534,1068 484,989" style="fill:rgb(155,156,155)"/>
<polygon points="288,1045 357,1031 289,928" style="fill:rgb(85,86,91)"/>
<polygon points="512,1065 534,1068 500,1042" style="fill:rgb(175,180,182)"/>
<polygon points="747,1005 798,949 709,885" style="fill:rgb(106,110,121)"/>
<polygon points="826,873 798,949 852,848" style="fill:rgb(139,142,152)"/>
<polygon points="398,281 297,364 386,355" style="fill:rgb(180,181,185)"/>
<polygon points="386,355 297,364 378,390" style="fill:rgb(198,200,203)"/>
<polygon points="292,452 55,586 295,473" style="fill:rgb(229,230,233)"/>
<polygon points="687,1067 709,885 592,875" style="fill:rgb(91,93,98)"/>
<polygon points="489,243 437,297 571,339" style="fill:rgb(123,130,144)"/>
<polygon points="160,900 200,927 230,907" style="fill:rgb(170,167,162)"/>
<polygon points="230,907 200,927 289,928" style="fill:rgb(163,167,174)"/>
<polygon points="512,1065 523,1097 534,1068" style="fill:rgb(88,91,99)"/>
<polygon points="534,1068 687,1067 592,875" style="fill:rgb(69,71,76)"/>
<polygon points="368,1078 523,1097 512,1065" style="fill:rgb(88,88,93)"/>
<polygon points="148,909 160,900 0,667" style="fill:rgb(225,226,227)"/>
<polygon points="236,626 160,900 230,907" style="fill:rgb(230,232,234)"/>
<polygon points="523,1097 687,1067 534,1068" style="fill:rgb(89,91,97)"/>
<polygon points="301,1078 368,1078 357,1031" style="fill:rgb(209,211,209)"/>
<polygon points="357,1031 368,1078 457,985" style="fill:rgb(223,227,230)"/>
<polygon points="288,1045 289,928 261,1044" style="fill:rgb(96,99,108)"/>
<polygon points="437,297 398,281 386,355" style="fill:rgb(135,134,134)"/>
<polygon points="464,233 398,281 437,297" style="fill:rgb(157,159,161)"/>
<polygon points="261,1044 289,928 200,927" style="fill:rgb(112,113,119)"/>
<polygon points="0,667 160,900 236,626" style="fill:rgb(227,228,231)"/>
<polygon points="160,900 148,909 200,927" style="fill:rgb(184,176,161)"/>
<polygon points="174,966 261,1044 200,927" style="fill:rgb(161,164,172)"/>
<polygon points="288,1045 301,1078 357,1031" style="fill:rgb(173,175,176)"/>
<polygon points="148,909 174,966 200,927" style="fill:rgb(169,172,179)"/>
<polygon points="578,316 489,243 571,339" style="fill:rgb(149,154,165)"/>
<polygon points="261,1044 301,1078 288,1045" style="fill:rgb(150,153,162)"/>
<polygon points="368,1078 517,1145 523,1097" style="fill:rgb(130,128,128)"/>
<polygon points="489,243 464,233 437,297" style="fill:rgb(139,137,134)"/>
<polygon points="533,1162 517,1145 265,1118" style="fill:rgb(167,166,169)"/>
<polygon points="523,1097 533,1162 687,1067" style="fill:rgb(137,136,138)"/>
<polygon points="578,316 483,217 489,243" style="fill:rgb(169,171,178)"/>
<polygon points="489,243 483,217 464,233" style="fill:rgb(197,199,205)"/>
<polygon points="464,233 440,216 398,281" style="fill:rgb(213,217,222)"/>
<polygon points="297,364 55,586 292,452" style="fill:rgb(228,229,233)"/>
<polygon points="483,217 440,216 464,233" style="fill:rgb(223,225,229)"/>
<polygon points="398,281 0,0 297,364" style="fill:rgb(229,230,232)"/>
<polygon points="297,364 0,0 55,586" style="fill:rgb(230,231,234)"/>
<polygon points="265,1118 517,1145 368,1078" style="fill:rgb(134,133,135)"/>
<polygon points="517,1145 533,1162 523,1097" style="fill:rgb(141,141,144)"/>
<polygon points="261,1044 265,1118 301,1078" style="fill:rgb(173,175,181)"/>
<polygon points="301,1078 265,1118 368,1078" style="fill:rgb(128,129,135)"/>
<polygon points="174,966 265,1118 261,1044" style="fill:rgb(222,223,225)"/>
<polygon points="1000,442 946,402 840,638" style="fill:rgb(225,226,230)"/>
<polygon points="840,638 946,402 788,618" style="fill:rgb(224,225,229)"/>
<polygon points="578,316 726,210 483,217" style="fill:rgb(226,227,231)"/>
<polygon points="1000,442 840,638 868,715" style="fill:rgb(224,225,229)"/>
<polygon points="1000,442 868,715 865,750" style="fill:rgb(224,225,228)"/>
<polygon points="533,1162 682,1175 687,1067" style="fill:rgb(216,217,219)"/>
<polygon points="687,1067 914,1183 747,1005" style="fill:rgb(219,220,222)"/>
<polygon points="747,1005 914,1183 798,949" style="fill:rgb(220,221,223)"/>
<polygon points="798,949 914,1183 852,848" style="fill:rgb(221,222,224)"/>
<polygon points="55,586 0,667 236,626" style="fill:rgb(228,229,232)"/>
<polygon points="148,909 81,1248 174,966" style="fill:rgb(221,222,225)"/>
<polygon points="946,402 726,210 605,390" style="fill:rgb(226,227,231)"/>
<polygon points="483,217 742,47 440,216" style="fill:rgb(229,230,233)"/>
<polygon points="914,1183 1000,442 865,750" style="fill:rgb(224,225,228)"/>
<polygon points="1000,0 742,47 726,210" style="fill:rgb(227,228,231)"/>
<polygon points="682,1175 914,1183 687,1067" style="fill:rgb(220,221,223)"/>
<polygon points="852,848 914,1183 865,750" style="fill:rgb(220,221,223)"/>
<polygon points="1000,0 726,210 946,402" style="fill:rgb(226,227,231)"/>
<polygon points="726,210 742,47 483,217" style="fill:rgb(228,229,232)"/>
<polygon points="533,1162 759,1333 682,1175" style="fill:rgb(223,224,226)"/>
<polygon points="682,1175 759,1333 914,1183" style="fill:rgb(223,224,226)"/>
<polygon points="81,1248 759,1333 533,1162" style="fill:rgb(224,225,227)"/>
<polygon points="174,966 81,1248 265,1118" style="fill:rgb(222,223,226)"/>
<polygon points="265,1118 81,1248 533,1162" style="fill:rgb(221,222,224)"/>
<polygon points="0,1333 81,1248 148,909" style="fill:rgb(224,225,228)"/>
<polygon points="759,1333 1000,1333 914,1183" style="fill:rgb(226,227,229)"/>
<polygon points="914,1183 1000,1333 1000,442" style="fill:rgb(226,227,229)"/>
<polygon points="0,667 0,1333 148,909" style="fill:rgb(226,227,229)"/>
<polygon points="81,1248 0,1333 759,1333" style="fill:rgb(227,228,230)"/>
<polygon points="1000,442 1000,0 946,402" style="fill:rgb(227,228,231)"/>
<polygon points="1000,0 0,0 742,47" style="fill:rgb(228,229,231)"/>
<polygon points="742,47 0,0 440,216" style="fill:rgb(229,230,233)"/>
<polygon points="440,216 0,0 398,281" style="fill:rgb(231,232,236)"/>
<polygon points="55,586 0,0 0,667" style="fill:rgb(228,229,232)"/>
</svg>