<?xml version="1.0"?>
<svg width="1000" height="1333" viewBox="0 0 1000 1333" 
     xmlns="http://www.w3.org/2000/svg"
     shape-rendering="crispEdges">
<polygon points="506,665 472,644 457,656" style="fill:rgb(86,85,89)"/>
<polygon points="472,644 457,637 457,656" style="fill:rgb(77,78,82)"/>
<polygon points="457,637 410,663 457,656" style="fill:rgb(130,134,145)"/>
<polygon points="457,656 522,728 506,665" style="fill:rgb(88,78,71)"/>
<polygon points="504,755 522,728 439,750" style="fill:rgb(185,182,179)"/>
<polygon points="562,608 504,600 506,665" style="fill:rgb(119,125,137)"/>
<polygon points="506,665 504,600 472,644" style="fill:rgb(107,111,123)"/>
<polygon points="472,644 504,600 457,637" style="fill:rgb(105,108,117)"/>
<polygon points="457,637 403,599 410,663" style="fill:rgb(138,143,152)"/>
<polygon points="522,728 568,667 506,665" style="fill:rgb(140,141,148)"/>
<polygon points="410,663 439,750 457,656" style="fill:rgb(147,150,158)"/>
<polygon points="439,750 522,728 457,656" style="fill:rgb(160,158,159)"/>
<polygon points="522,728 599,715 568,667" style="fill:rgb(167,168,172)"/>
<polygon points="392,683 439,750 410,663" style="fill:rgb(189,190,195)"/>
<polygon points="467,766 499,760 504,755" style="fill:rgb(206,201,193)"/>
<polygon points="439,750 467,766 504,755" style="fill:rgb(212,211,208)"/>
<polygon points="568,667 562,608 506,665" style="fill:rgb(96,98,107)"/>
<polygon points="562,608 537,584 504,600" style="fill:rgb(128,134,145)"/>
<polygon points="383,585 403,599 390,575" style="fill:rgb(168,172,178)"/>
<polygon points="472,539 403,599 457,637" style="fill:rgb(109,112,119)"/>
<polygon points="410,663 383,585 392,683" style="fill:rgb(184,187,193)"/>
<polygon points="530,792 522,728 504,755" style="fill:rgb(237,239,241)"/>
<polygon points="560,791 599,715 522,728" style="fill:rgb(240,242,244)"/>
<polygon points="568,667 609,622 562,608" style="fill:rgb(128,129,135)"/>
<polygon points="390,575 403,599 434,522" style="fill:rgb(137,137,140)"/>
<polygon points="403,599 383,585 410,663" style="fill:rgb(170,174,181)"/>
<polygon points="472,539 457,637 504,600" style="fill:rgb(107,113,124)"/>
<polygon points="537,584 472,539 504,600" style="fill:rgb(115,121,133)"/>
<polygon points="521,803 530,792 499,760" style="fill:rgb(208,199,174)"/>
<polygon points="499,760 530,792 504,755" style="fill:rgb(194,184,157)"/>
<polygon points="621,682 609,622 568,667" style="fill:rgb(137,141,152)"/>
<polygon points="562,608 539,510 537,584" style="fill:rgb(158,162,171)"/>
<polygon points="537,584 539,510 472,539" style="fill:rgb(127,132,144)"/>
<polygon points="479,814 521,803 499,760" style="fill:rgb(241,243,244)"/>
<polygon points="530,792 560,791 522,728" style="fill:rgb(240,242,244)"/>
<polygon points="479,814 499,760 467,766" style="fill:rgb(245,246,248)"/>
<polygon points="599,715 621,682 568,667" style="fill:rgb(171,175,182)"/>
<polygon points="461,852 479,814 393,834" style="fill:rgb(234,237,239)"/>
<polygon points="393,834 479,814 467,766" style="fill:rgb(241,242,244)"/>
<polygon points="550,829 560,791 530,792" style="fill:rgb(192,191,188)"/>
<polygon points="599,715 626,706 621,682" style="fill:rgb(194,195,198)"/>
<polygon points="638,766 626,706 599,715" style="fill:rgb(239,240,241)"/>
<polygon points="621,682 651,645 609,622" style="fill:rgb(150,154,165)"/>
<polygon points="365,538 362,572 390,575" style="fill:rgb(192,192,195)"/>
<polygon points="390,575 362,572 383,585" style="fill:rgb(190,192,198)"/>
<polygon points="383,585 362,572 392,683" style="fill:rgb(201,202,207)"/>
<polygon points="472,539 434,522 403,599" style="fill:rgb(132,138,146)"/>
<polygon points="676,743 645,684 626,706" style="fill:rgb(230,230,230)"/>
<polygon points="626,706 645,684 621,682" style="fill:rgb(202,205,209)"/>
<polygon points="609,622 539,510 562,608" style="fill:rgb(216,217,220)"/>
<polygon points="472,539 475,496 434,522" style="fill:rgb(139,146,156)"/>
<polygon points="645,684 651,645 621,682" style="fill:rgb(188,192,197)"/>
<polygon points="592,443 563,461 539,510" style="fill:rgb(187,190,196)"/>
<polygon points="539,510 475,496 472,539" style="fill:rgb(141,147,157)"/>
<polygon points="434,522 365,538 390,575" style="fill:rgb(156,149,137)"/>
<polygon points="366,503 365,538 434,522" style="fill:rgb(142,146,153)"/>
<polygon points="479,814 550,829 521,803" style="fill:rgb(217,220,223)"/>
<polygon points="521,803 550,829 530,792" style="fill:rgb(154,142,128)"/>
<polygon points="560,791 638,766 599,715" style="fill:rgb(236,238,240)"/>
<polygon points="475,496 437,497 434,522" style="fill:rgb(120,118,118)"/>
<polygon points="563,852 559,834 550,829" style="fill:rgb(122,101,74)"/>
<polygon points="550,829 559,834 560,791" style="fill:rgb(213,210,206)"/>
<polygon points="393,834 467,766 439,750" style="fill:rgb(212,207,192)"/>
<polygon points="479,814 461,852 550,829" style="fill:rgb(223,225,228)"/>
<polygon points="605,808 638,766 560,791" style="fill:rgb(176,179,185)"/>
<polygon points="645,684 738,625 651,645" style="fill:rgb(200,203,207)"/>
<polygon points="307,818 439,750 392,683" style="fill:rgb(218,219,220)"/>
<polygon points="307,818 393,834 439,750" style="fill:rgb(238,239,240)"/>
<polygon points="559,834 605,808 560,791" style="fill:rgb(217,220,224)"/>
<polygon points="539,510 499,479 475,496" style="fill:rgb(147,153,163)"/>
<polygon points="475,496 505,453 437,497" style="fill:rgb(115,113,113)"/>
<polygon points="461,852 563,852 550,829" style="fill:rgb(240,241,242)"/>
<polygon points="559,834 568,851 605,808" style="fill:rgb(236,237,233)"/>
<polygon points="332,488 366,503 370,373" style="fill:rgb(184,185,188)"/>
<polygon points="437,497 366,503 434,522" style="fill:rgb(119,118,116)"/>
<polygon points="365,538 331,514 362,572" style="fill:rgb(204,205,206)"/>
<polygon points="563,852 568,851 559,834" style="fill:rgb(174,151,104)"/>
<polygon points="645,821 638,806 605,808" style="fill:rgb(197,202,206)"/>
<polygon points="605,808 638,806 638,766" style="fill:rgb(154,158,165)"/>
<polygon points="638,766 676,743 626,706" style="fill:rgb(234,236,239)"/>
<polygon points="685,750 676,743 638,766" style="fill:rgb(183,188,193)"/>
<polygon points="366,503 331,514 365,538" style="fill:rgb(180,176,171)"/>
<polygon points="219,814 307,818 392,683" style="fill:rgb(235,236,237)"/>
<polygon points="645,821 650,805 638,806" style="fill:rgb(170,175,182)"/>
<polygon points="638,806 650,805 638,766" style="fill:rgb(134,138,147)"/>
<polygon points="563,461 505,453 499,479" style="fill:rgb(140,146,157)"/>
<polygon points="499,479 505,453 475,496" style="fill:rgb(140,147,157)"/>
<polygon points="366,503 332,488 331,514" style="fill:rgb(200,196,190)"/>
<polygon points="563,461 499,479 539,510" style="fill:rgb(157,161,171)"/>
<polygon points="563,852 575,868 568,851" style="fill:rgb(162,151,134)"/>
<polygon points="568,851 632,859 605,808" style="fill:rgb(221,226,228)"/>
<polygon points="567,873 575,868 563,852" style="fill:rgb(185,190,192)"/>
<polygon points="650,805 685,750 638,766" style="fill:rgb(138,142,150)"/>
<polygon points="768,671 738,625 645,684" style="fill:rgb(221,221,220)"/>
<polygon points="498,919 567,873 563,852" style="fill:rgb(203,208,212)"/>
<polygon points="592,443 539,510 609,622" style="fill:rgb(225,226,228)"/>
<polygon points="632,859 645,821 605,808" style="fill:rgb(224,229,232)"/>
<polygon points="650,805 707,760 685,750" style="fill:rgb(120,125,134)"/>
<polygon points="393,834 405,881 461,852" style="fill:rgb(221,225,228)"/>
<polygon points="510,925 574,879 567,873" style="fill:rgb(167,174,179)"/>
<polygon points="219,814 392,683 107,627" style="fill:rgb(228,228,231)"/>
<polygon points="393,834 361,888 405,881" style="fill:rgb(215,218,220)"/>
<polygon points="567,873 574,879 575,868" style="fill:rgb(162,168,173)"/>
<polygon points="575,868 592,878 568,851" style="fill:rgb(50,38,24)"/>
<polygon points="498,919 563,852 461,852" style="fill:rgb(232,235,237)"/>
<polygon points="391,373 366,503 437,497" style="fill:rgb(103,104,110)"/>
<polygon points="107,627 392,683 362,572" style="fill:rgb(227,228,231)"/>
<polygon points="574,879 592,878 575,868" style="fill:rgb(99,98,97)"/>
<polygon points="592,878 632,859 568,851" style="fill:rgb(149,154,156)"/>
<polygon points="699,850 707,760 650,805" style="fill:rgb(104,109,119)"/>
<polygon points="743,758 707,760 752,806" style="fill:rgb(102,107,118)"/>
<polygon points="768,671 645,684 676,743" style="fill:rgb(231,234,235)"/>
<polygon points="738,625 592,443 609,622" style="fill:rgb(225,226,228)"/>
<polygon points="361,888 414,909 405,881" style="fill:rgb(162,165,172)"/>
<polygon points="405,881 414,909 461,852" style="fill:rgb(178,180,185)"/>
<polygon points="574,879 561,950 592,878" style="fill:rgb(90,92,99)"/>
<polygon points="329,880 361,888 393,834" style="fill:rgb(209,204,179)"/>
<polygon points="434,931 498,919 461,852" style="fill:rgb(225,229,231)"/>
<polygon points="592,372 481,375 505,453" style="fill:rgb(126,128,136)"/>
<polygon points="738,625 609,622 651,645" style="fill:rgb(216,217,220)"/>
<polygon points="523,940 510,925 479,991" style="fill:rgb(126,132,139)"/>
<polygon points="498,919 510,925 567,873" style="fill:rgb(188,194,198)"/>
<polygon points="592,878 639,874 632,859" style="fill:rgb(119,124,132)"/>
<polygon points="445,971 434,931 399,1007" style="fill:rgb(206,211,215)"/>
<polygon points="307,818 329,880 393,834" style="fill:rgb(242,243,244)"/>
<polygon points="660,926 639,874 592,878" style="fill:rgb(95,98,107)"/>
<polygon points="632,859 699,850 645,821" style="fill:rgb(199,205,210)"/>
<polygon points="768,671 676,743 685,750" style="fill:rgb(202,207,211)"/>
<polygon points="434,931 371,1003 399,1007" style="fill:rgb(189,194,198)"/>
<polygon points="414,909 434,931 461,852" style="fill:rgb(188,191,196)"/>
<polygon points="266,454 295,478 297,384" style="fill:rgb(215,215,219)"/>
<polygon points="332,488 295,478 331,514" style="fill:rgb(218,218,219)"/>
<polygon points="479,991 510,925 498,919" style="fill:rgb(160,166,172)"/>
<polygon points="510,925 523,940 574,879" style="fill:rgb(143,150,156)"/>
<polygon points="699,850 650,805 645,821" style="fill:rgb(167,174,181)"/>
<polygon points="707,760 768,671 685,750" style="fill:rgb(170,177,183)"/>
<polygon points="702,868 699,850 692,885" style="fill:rgb(113,114,120)"/>
<polygon points="639,874 699,850 632,859" style="fill:rgb(176,183,189)"/>
<polygon points="768,671 762,619 738,625" style="fill:rgb(178,177,175)"/>
<polygon points="738,625 837,476 592,443" style="fill:rgb(225,226,229)"/>
<polygon points="743,758 768,671 707,760" style="fill:rgb(109,115,125)"/>
<polygon points="515,1037 561,950 523,940" style="fill:rgb(78,81,88)"/>
<polygon points="523,940 561,950 574,879" style="fill:rgb(104,108,114)"/>
<polygon points="494,354 481,375 592,372" style="fill:rgb(123,129,142)"/>
<polygon points="505,453 481,375 437,497" style="fill:rgb(123,129,141)"/>
<polygon points="784,738 776,672 768,671" style="fill:rgb(101,83,56)"/>
<polygon points="768,671 776,672 762,619" style="fill:rgb(158,147,130)"/>
<polygon points="692,885 699,850 639,874" style="fill:rgb(144,150,159)"/>
<polygon points="699,850 752,806 707,760" style="fill:rgb(93,97,108)"/>
<polygon points="743,758 784,738 768,671" style="fill:rgb(91,95,105)"/>
<polygon points="238,487 362,572 331,514" style="fill:rgb(228,229,232)"/>
<polygon points="307,818 278,892 329,880" style="fill:rgb(239,241,243)"/>
<polygon points="219,814 278,892 307,818" style="fill:rgb(232,234,236)"/>
<polygon points="329,880 293,947 361,888" style="fill:rgb(140,139,140)"/>
<polygon points="660,926 692,885 639,874" style="fill:rgb(111,115,124)"/>
<polygon points="266,454 238,487 295,478" style="fill:rgb(229,230,234)"/>
<polygon points="295,478 238,487 331,514" style="fill:rgb(229,230,233)"/>
<polygon points="297,384 295,478 332,488" style="fill:rgb(196,195,198)"/>
<polygon points="434,931 414,909 371,1003" style="fill:rgb(168,173,178)"/>
<polygon points="434,931 445,971 498,919" style="fill:rgb(207,211,215)"/>
<polygon points="766,795 752,806 762,816" style="fill:rgb(68,61,55)"/>
<polygon points="762,816 752,806 699,850" style="fill:rgb(101,96,92)"/>
<polygon points="481,375 391,373 437,497" style="fill:rgb(107,113,126)"/>
<polygon points="766,795 784,738 743,758" style="fill:rgb(91,95,106)"/>
<polygon points="762,816 699,850 702,868" style="fill:rgb(100,86,68)"/>
<polygon points="752,806 766,795 743,758" style="fill:rgb(99,103,113)"/>
<polygon points="561,950 660,926 592,878" style="fill:rgb(71,73,78)"/>
<polygon points="810,817 762,816 801,904" style="fill:rgb(99,99,104)"/>
<polygon points="592,372 505,453 563,461" style="fill:rgb(130,136,148)"/>
<polygon points="481,375 389,314 391,373" style="fill:rgb(105,109,120)"/>
<polygon points="326,353 370,373 369,310" style="fill:rgb(169,173,181)"/>
<polygon points="391,373 370,373 366,503" style="fill:rgb(160,163,171)"/>
<polygon points="604,365 592,372 592,443" style="fill:rgb(187,190,197)"/>
<polygon points="592,443 592,372 563,461" style="fill:rgb(153,159,169)"/>
<polygon points="762,816 702,868 801,904" style="fill:rgb(101,105,115)"/>
<polygon points="766,795 793,738 784,738" style="fill:rgb(68,68,73)"/>
<polygon points="810,817 793,738 766,795" style="fill:rgb(65,64,67)"/>
<polygon points="784,738 793,738 776,672" style="fill:rgb(79,64,43)"/>
<polygon points="467,996 479,991 445,971" style="fill:rgb(179,184,189)"/>
<polygon points="445,971 479,991 498,919" style="fill:rgb(173,179,184)"/>
<polygon points="679,1073 718,1032 660,926" style="fill:rgb(93,95,103)"/>
<polygon points="399,1007 467,996 445,971" style="fill:rgb(212,217,220)"/>
<polygon points="479,991 515,1037 523,940" style="fill:rgb(95,99,105)"/>
<polygon points="842,657 805,633 776,672" style="fill:rgb(144,144,148)"/>
<polygon points="776,672 805,633 762,619" style="fill:rgb(194,196,198)"/>
<polygon points="837,476 604,365 592,443" style="fill:rgb(226,227,230)"/>
<polygon points="227,927 275,926 278,892" style="fill:rgb(162,166,172)"/>
<polygon points="278,892 275,926 329,880" style="fill:rgb(178,181,187)"/>
<polygon points="837,476 738,625 762,619" style="fill:rgb(225,226,228)"/>
<polygon points="592,372 566,327 494,354" style="fill:rgb(126,133,145)"/>
<polygon points="275,926 293,947 329,880" style="fill:rgb(104,97,89)"/>
<polygon points="275,952 276,936 224,938" style="fill:rgb(65,60,56)"/>
<polygon points="275,926 276,936 293,947" style="fill:rgb(112,111,112)"/>
<polygon points="326,353 297,384 370,373" style="fill:rgb(185,185,188)"/>
<polygon points="370,373 297,384 332,488" style="fill:rgb(225,227,229)"/>
<polygon points="63,310 149,525 238,487" style="fill:rgb(230,231,235)"/>
<polygon points="371,1003 414,909 361,888" style="fill:rgb(130,135,142)"/>
<polygon points="276,936 275,952 293,947" style="fill:rgb(72,67,61)"/>
<polygon points="293,947 371,1003 361,888" style="fill:rgb(121,125,134)"/>
<polygon points="227,927 276,936 275,926" style="fill:rgb(135,139,147)"/>
<polygon points="793,738 829,699 776,672" style="fill:rgb(125,121,120)"/>
<polygon points="861,694 829,699 866,699" style="fill:rgb(151,155,164)"/>
<polygon points="325,1025 371,1003 293,947" style="fill:rgb(85,87,93)"/>
<polygon points="389,314 370,373 391,373" style="fill:rgb(211,213,217)"/>
<polygon points="604,365 566,327 592,372" style="fill:rgb(157,159,165)"/>
<polygon points="494,354 389,314 481,375" style="fill:rgb(112,118,131)"/>
<polygon points="277,303 266,454 297,384" style="fill:rgb(226,227,231)"/>
<polygon points="63,310 238,487 266,454" style="fill:rgb(230,231,235)"/>
<polygon points="238,487 149,525 362,572" style="fill:rgb(229,230,233)"/>
<polygon points="186,888 278,892 219,814" style="fill:rgb(237,239,242)"/>
<polygon points="186,888 227,927 278,892" style="fill:rgb(213,216,219)"/>
<polygon points="275,952 325,1025 293,947" style="fill:rgb(70,70,71)"/>
<polygon points="801,904 702,868 692,885" style="fill:rgb(105,106,113)"/>
<polygon points="762,816 810,817 766,795" style="fill:rgb(87,89,97)"/>
<polygon points="861,645 842,657 861,694" style="fill:rgb(214,216,220)"/>
<polygon points="829,699 842,657 776,672" style="fill:rgb(122,124,131)"/>
<polygon points="805,633 855,584 762,619" style="fill:rgb(224,225,227)"/>
<polygon points="134,896 186,888 219,814" style="fill:rgb(242,243,245)"/>
<polygon points="457,238 389,314 494,354" style="fill:rgb(128,132,140)"/>
<polygon points="515,1037 467,996 461,1054" style="fill:rgb(205,209,212)"/>
<polygon points="511,1046 515,1037 461,1054" style="fill:rgb(58,50,38)"/>
<polygon points="467,996 515,1037 479,991" style="fill:rgb(153,159,164)"/>
<polygon points="729,1029 801,904 692,885" style="fill:rgb(105,108,119)"/>
<polygon points="166,948 224,938 227,927" style="fill:rgb(147,143,136)"/>
<polygon points="227,927 224,938 276,936" style="fill:rgb(138,140,145)"/>
<polygon points="604,365 575,307 566,327" style="fill:rgb(203,204,207)"/>
<polygon points="566,327 518,286 494,354" style="fill:rgb(124,131,145)"/>
<polygon points="689,278 575,307 604,365" style="fill:rgb(227,228,232)"/>
<polygon points="369,310 299,341 326,353" style="fill:rgb(203,204,207)"/>
<polygon points="326,353 299,341 297,384" style="fill:rgb(205,205,206)"/>
<polygon points="149,525 107,627 362,572" style="fill:rgb(229,230,233)"/>
<polygon points="385,292 369,310 389,314" style="fill:rgb(159,153,148)"/>
<polygon points="389,314 369,310 370,373" style="fill:rgb(209,210,214)"/>
<polygon points="461,1054 467,996 399,1007" style="fill:rgb(224,228,231)"/>
<polygon points="515,1037 526,1045 561,950" style="fill:rgb(77,76,78)"/>
<polygon points="511,1046 526,1045 515,1037" style="fill:rgb(138,132,121)"/>
<polygon points="861,694 842,657 829,699" style="fill:rgb(132,137,148)"/>
<polygon points="842,657 861,645 805,633" style="fill:rgb(216,218,222)"/>
<polygon points="866,699 829,699 863,761" style="fill:rgb(137,139,147)"/>
<polygon points="861,645 855,584 805,633" style="fill:rgb(224,225,228)"/>
<polygon points="575,307 518,286 566,327" style="fill:rgb(152,157,168)"/>
<polygon points="417,1066 399,1007 371,1003" style="fill:rgb(216,221,224)"/>
<polygon points="466,1067 461,1054 417,1066" style="fill:rgb(83,79,72)"/>
<polygon points="511,1046 517,1063 526,1045" style="fill:rgb(205,211,214)"/>
<polygon points="861,694 866,699 861,645" style="fill:rgb(223,224,228)"/>
<polygon points="859,765 829,699 793,738" style="fill:rgb(96,96,102)"/>
<polygon points="320,1048 325,1025 292,1045" style="fill:rgb(125,128,137)"/>
<polygon points="457,238 385,292 389,314" style="fill:rgb(171,172,174)"/>
<polygon points="369,310 367,290 299,341" style="fill:rgb(236,236,235)"/>
<polygon points="810,817 859,765 793,738" style="fill:rgb(100,101,108)"/>
<polygon points="851,841 863,761 859,765" style="fill:rgb(144,148,158)"/>
<polygon points="859,765 863,761 829,699" style="fill:rgb(127,126,130)"/>
<polygon points="466,1067 517,1063 511,1046" style="fill:rgb(190,196,200)"/>
<polygon points="526,1045 679,1073 561,950" style="fill:rgb(65,66,69)"/>
<polygon points="456,211 367,290 385,292" style="fill:rgb(226,229,232)"/>
<polygon points="385,292 367,290 369,310" style="fill:rgb(186,180,163)"/>
<polygon points="814,926 801,904 729,1029" style="fill:rgb(118,120,127)"/>
<polygon points="810,817 851,841 859,765" style="fill:rgb(127,131,141)"/>
<polygon points="417,1066 461,1054 399,1007" style="fill:rgb(232,236,238)"/>
<polygon points="461,1054 466,1067 511,1046" style="fill:rgb(137,132,122)"/>
<polygon points="403,1088 417,1066 343,1089" style="fill:rgb(126,116,104)"/>
<polygon points="855,584 837,476 762,619" style="fill:rgb(224,225,229)"/>
<polygon points="837,875 851,841 810,817" style="fill:rgb(126,129,140)"/>
<polygon points="292,1045 325,1025 275,952" style="fill:rgb(90,94,104)"/>
<polygon points="325,1025 320,1048 371,1003" style="fill:rgb(110,110,113)"/>
<polygon points="801,904 837,875 810,817" style="fill:rgb(113,117,128)"/>
<polygon points="186,888 166,948 227,927" style="fill:rgb(170,170,170)"/>
<polygon points="226,1009 292,1045 275,952" style="fill:rgb(99,103,113)"/>
<polygon points="60,878 134,896 219,814" style="fill:rgb(228,229,232)"/>
<polygon points="367,290 277,303 299,341" style="fill:rgb(224,224,224)"/>
<polygon points="299,341 277,303 297,384" style="fill:rgb(208,209,214)"/>
<polygon points="134,896 166,948 186,888" style="fill:rgb(183,182,181)"/>
<polygon points="461,1092 545,1084 517,1063" style="fill:rgb(89,92,100)"/>
<polygon points="517,1063 545,1084 526,1045" style="fill:rgb(136,141,147)"/>
<polygon points="461,1092 517,1063 466,1067" style="fill:rgb(88,91,99)"/>
<polygon points="226,1009 275,952 224,938" style="fill:rgb(120,122,130)"/>
<polygon points="403,1088 461,1092 417,1066" style="fill:rgb(77,72,69)"/>
<polygon points="729,1029 692,885 660,926" style="fill:rgb(103,103,106)"/>
<polygon points="801,904 814,926 837,875" style="fill:rgb(132,136,146)"/>
<polygon points="149,525 65,588 107,627" style="fill:rgb(229,230,234)"/>
<polygon points="0,792 60,878 219,814" style="fill:rgb(226,227,229)"/>
<polygon points="63,310 65,588 149,525" style="fill:rgb(229,230,234)"/>
<polygon points="417,1066 371,1003 332,1077" style="fill:rgb(219,224,227)"/>
<polygon points="417,1066 461,1092 466,1067" style="fill:rgb(84,82,83)"/>
<polygon points="863,761 901,714 866,699" style="fill:rgb(219,220,222)"/>
<polygon points="866,699 901,714 861,645" style="fill:rgb(223,224,227)"/>
<polygon points="861,645 901,714 855,584" style="fill:rgb(224,225,228)"/>
<polygon points="855,584 913,465 837,476" style="fill:rgb(224,225,229)"/>
<polygon points="1000,773 901,714 863,761" style="fill:rgb(224,225,228)"/>
<polygon points="166,948 226,1009 224,938" style="fill:rgb(155,158,167)"/>
<polygon points="575,307 515,245 518,286" style="fill:rgb(161,167,177)"/>
<polygon points="518,286 457,238 494,354" style="fill:rgb(116,122,136)"/>
<polygon points="367,290 303,183 277,303" style="fill:rgb(229,229,229)"/>
<polygon points="689,278 515,245 575,307" style="fill:rgb(226,227,231)"/>
<polygon points="332,1077 371,1003 320,1048" style="fill:rgb(191,190,180)"/>
<polygon points="837,875 865,861 851,841" style="fill:rgb(212,213,216)"/>
<polygon points="851,841 865,861 863,761" style="fill:rgb(203,205,209)"/>
<polygon points="920,924 865,861 837,875" style="fill:rgb(222,223,225)"/>
<polygon points="515,245 457,238 518,286" style="fill:rgb(158,159,164)"/>
<polygon points="285,1091 320,1048 292,1045" style="fill:rgb(158,161,169)"/>
<polygon points="285,1091 332,1077 320,1048" style="fill:rgb(184,187,190)"/>
<polygon points="679,1073 660,926 561,950" style="fill:rgb(77,78,83)"/>
<polygon points="226,1009 278,1056 292,1045" style="fill:rgb(138,142,151)"/>
<polygon points="679,1073 729,1029 718,1032" style="fill:rgb(180,182,186)"/>
<polygon points="718,1032 729,1029 660,926" style="fill:rgb(98,102,111)"/>
<polygon points="285,1091 343,1089 332,1077" style="fill:rgb(106,106,110)"/>
<polygon points="332,1077 343,1089 417,1066" style="fill:rgb(168,170,171)"/>
<polygon points="546,1154 545,1084 461,1092" style="fill:rgb(126,126,130)"/>
<polygon points="837,476 689,278 604,365" style="fill:rgb(226,227,231)"/>
<polygon points="577,1109 679,1073 545,1084" style="fill:rgb(123,120,119)"/>
<polygon points="545,1084 679,1073 526,1045" style="fill:rgb(83,85,92)"/>
<polygon points="563,1127 577,1109 545,1084" style="fill:rgb(132,132,136)"/>
<polygon points="563,1127 545,1084 546,1154" style="fill:rgb(131,131,134)"/>
<polygon points="515,245 456,211 457,238" style="fill:rgb(193,196,201)"/>
<polygon points="457,238 456,211 385,292" style="fill:rgb(211,215,219)"/>
<polygon points="657,0 456,211 515,245" style="fill:rgb(228,229,233)"/>
<polygon points="278,1056 285,1091 292,1045" style="fill:rgb(160,163,171)"/>
<polygon points="426,1145 461,1092 403,1088" style="fill:rgb(145,141,138)"/>
<polygon points="267,1083 285,1091 278,1056" style="fill:rgb(174,176,182)"/>
<polygon points="267,1083 278,1056 226,1009" style="fill:rgb(196,198,202)"/>
<polygon points="366,1123 403,1088 343,1089" style="fill:rgb(135,132,131)"/>
<polygon points="577,1109 591,1131 679,1073" style="fill:rgb(169,169,172)"/>
<polygon points="254,1103 267,1083 226,1009" style="fill:rgb(221,222,224)"/>
<polygon points="279,1128 366,1123 343,1089" style="fill:rgb(134,136,142)"/>
<polygon points="134,896 60,878 166,948" style="fill:rgb(216,217,220)"/>
<polygon points="125,1263 254,1103 226,1009" style="fill:rgb(222,223,225)"/>
<polygon points="0,792 219,814 107,627" style="fill:rgb(227,228,231)"/>
<polygon points="366,1123 394,1132 403,1088" style="fill:rgb(117,116,120)"/>
<polygon points="590,1137 591,1131 563,1127" style="fill:rgb(119,120,125)"/>
<polygon points="563,1127 591,1131 577,1109" style="fill:rgb(124,126,132)"/>
<polygon points="366,1123 384,1135 394,1132" style="fill:rgb(161,157,153)"/>
<polygon points="394,1132 426,1145 403,1088" style="fill:rgb(133,130,130)"/>
<polygon points="279,1128 384,1135 366,1123" style="fill:rgb(180,173,165)"/>
<polygon points="384,1135 426,1145 394,1132" style="fill:rgb(184,183,184)"/>
<polygon points="901,714 913,465 855,584" style="fill:rgb(224,225,229)"/>
<polygon points="837,476 913,465 689,278" style="fill:rgb(225,226,230)"/>
<polygon points="546,1154 590,1137 563,1127" style="fill:rgb(140,139,141)"/>
<polygon points="591,1131 590,1137 679,1073" style="fill:rgb(206,207,210)"/>
<polygon points="267,1083 254,1103 285,1091" style="fill:rgb(192,194,198)"/>
<polygon points="285,1091 279,1128 343,1089" style="fill:rgb(136,139,147)"/>
<polygon points="125,1263 226,1009 166,948" style="fill:rgb(222,223,225)"/>
<polygon points="426,1145 546,1154 461,1092" style="fill:rgb(134,133,137)"/>
<polygon points="65,588 0,792 107,627" style="fill:rgb(228,229,232)"/>
<polygon points="254,1103 279,1128 285,1091" style="fill:rgb(163,165,172)"/>
<polygon points="384,1135 125,1263 426,1145" style="fill:rgb(222,223,225)"/>
<polygon points="814,926 920,924 837,875" style="fill:rgb(221,222,224)"/>
<polygon points="865,861 1000,773 863,761" style="fill:rgb(223,224,227)"/>
<polygon points="901,714 1000,773 913,465" style="fill:rgb(225,226,229)"/>
<polygon points="945,1147 920,924 814,926" style="fill:rgb(222,223,225)"/>
<polygon points="945,1147 814,926 729,1029" style="fill:rgb(220,221,223)"/>
<polygon points="945,1147 729,1029 785,1278" style="fill:rgb(221,222,224)"/>
<polygon points="456,211 303,183 367,290" style="fill:rgb(235,236,239)"/>
<polygon points="277,303 63,310 266,454" style="fill:rgb(231,232,235)"/>
<polygon points="546,1154 564,1186 590,1137" style="fill:rgb(215,216,218)"/>
<polygon points="590,1137 785,1278 679,1073" style="fill:rgb(221,222,223)"/>
<polygon points="426,1145 564,1186 546,1154" style="fill:rgb(218,219,221)"/>
<polygon points="125,1263 564,1186 426,1145" style="fill:rgb(222,223,225)"/>
<polygon points="920,924 1000,773 865,861" style="fill:rgb(224,225,227)"/>
<polygon points="303,183 63,310 277,303" style="fill:rgb(231,232,236)"/>
<polygon points="65,588 0,263 0,792" style="fill:rgb(228,229,232)"/>
<polygon points="220,60 0,263 63,310" style="fill:rgb(229,230,234)"/>
<polygon points="63,310 0,263 65,588" style="fill:rgb(229,230,233)"/>
<polygon points="456,211 220,60 303,183" style="fill:rgb(230,231,234)"/>
<polygon points="303,183 220,60 63,310" style="fill:rgb(230,231,235)"/>
<polygon points="657,0 220,60 456,211" style="fill:rgb(229,230,233)"/>
<polygon points="785,1278 729,1029 679,1073" style="fill:rgb(220,221,223)"/>
<polygon points="920,924 945,1147 1000,773" style="fill:rgb(225,226,228)"/>
<polygon points="564,1186 785,1278 590,1137" style="fill:rgb(221,222,224)"/>
<polygon points="125,1263 785,1278 564,1186" style="fill:rgb(224,225,227)"/>
<polygon points="254,1103 125,1263 279,1128" style="fill:rgb(221,222,225)"/>
<polygon points="279,1128 125,1263 384,1135" style="fill:rgb(222,223,225)"/>
<polygon points="60,878 125,1263 166,948" style="fill:rgb(223,224,227)"/>
<polygon points="0,1333 125,1263 60,878" style="fill:rgb(225,226,229)"/>
<polygon points="959,142 657,0 689,278" style="fill:rgb(227,228,231)"/>
<polygon points="689,278 657,0 515,245" style="fill:rgb(228,229,232)"/>
<polygon points="1000,773 959,142 913,465" style="fill:rgb(226,227,230)"/>
<polygon points="913,465 959,142 689,278" style="fill:rgb(226,227,230)"/>
<polygon points="0,1333 892,1333 785,1278" style="fill:rgb(228,229,231)"/>
<polygon points="785,1278 892,1333 945,1147" style="fill:rgb(225,226,228)"/>
<polygon points="892,1333 1000,1254 945,1147" style="fill:rgb(226,227,229)"/>
<polygon points="945,1147 1000,1254 1000,773" style="fill:rgb(227,228,230)"/>
<polygon points="0,792 0,1333 60,878" style="fill:rgb(227,228,231)"/>
<polygon points="125,1263 0,1333 785,1278" style="fill:rgb(227,228,230)"/>
<polygon points="657,0 0,0 220,60" style="fill:rgb(228,229,231)"/>
<polygon points="220,60 0,0 0,263" style="fill:rgb(228,229,232)"/>
<polygon points="892,1333 1000,1333 1000,1254" style="fill:rgb(228,229,231)"/>
<polygon points="1000,773 1000,0 959,142" style="fill:rgb(228,229,231)"/>
<polygon points="959,142 1000,0 657,0" style="fill:rgb(228,229,231)"/>
</svg>