<?xml version="1.0"?>
<svg width="1000" height="1333" viewBox="0 0 1000 1333" 
     xmlns="http://www.w3.org/2000/svg"
     shape-rendering="crispEdges">
<polygon points="503,743 431,779 583,845" style="fill:rgb(224,222,218)"/>
<polygon points="478,974 595,875 583,845" style="fill:rgb(140,144,148)"/>
<polygon points="431,779 392,870 583,845" style="fill:rgb(230,232,232)"/>
<polygon points="392,870 445,963 583,845" style="fill:rgb(214,218,220)"/>
<polygon points="445,963 478,974 583,845" style="fill:rgb(181,186,191)"/>
<polygon points="478,974 631,900 595,875" style="fill:rgb(88,91,97)"/>
<polygon points="595,875 631,900 583,845" style="fill:rgb(131,137,143)"/>
<polygon points="680,646 575,609 503,743" style="fill:rgb(147,150,158)"/>
<polygon points="445,963 491,1039 478,974" style="fill:rgb(176,181,186)"/>
<polygon points="392,870 382,967 445,963" style="fill:rgb(161,166,171)"/>
<polygon points="406,1076 491,1039 445,963" style="fill:rgb(219,223,226)"/>
<polygon points="478,974 545,1080 631,900" style="fill:rgb(78,80,85)"/>
<polygon points="233,914 374,1000 382,967" style="fill:rgb(111,114,122)"/>
<polygon points="382,967 374,1000 445,963" style="fill:rgb(184,189,194)"/>
<polygon points="680,646 503,743 583,845" style="fill:rgb(222,224,227)"/>
<polygon points="503,743 360,523 431,779" style="fill:rgb(168,169,174)"/>
<polygon points="575,609 529,575 503,743" style="fill:rgb(119,121,129)"/>
<polygon points="762,674 680,646 583,845" style="fill:rgb(215,218,220)"/>
<polygon points="608,357 474,489 529,575" style="fill:rgb(146,151,161)"/>
<polygon points="475,1094 545,1080 491,1039" style="fill:rgb(113,116,121)"/>
<polygon points="491,1039 545,1080 478,974" style="fill:rgb(150,153,154)"/>
<polygon points="374,1000 406,1076 445,963" style="fill:rgb(215,220,223)"/>
<polygon points="406,1076 475,1094 491,1039" style="fill:rgb(94,93,92)"/>
<polygon points="431,779 233,914 392,870" style="fill:rgb(225,224,218)"/>
<polygon points="392,870 233,914 382,967" style="fill:rgb(138,140,145)"/>
<polygon points="374,1000 283,1086 406,1076" style="fill:rgb(202,205,205)"/>
<polygon points="325,503 233,914 431,779" style="fill:rgb(230,231,233)"/>
<polygon points="673,1082 734,990 631,900" style="fill:rgb(91,93,101)"/>
<polygon points="631,900 762,674 583,845" style="fill:rgb(162,167,174)"/>
<polygon points="866,766 762,674 631,900" style="fill:rgb(100,102,108)"/>
<polygon points="608,357 529,575 575,609" style="fill:rgb(208,210,214)"/>
<polygon points="553,1154 673,1082 545,1080" style="fill:rgb(143,142,144)"/>
<polygon points="545,1080 673,1082 631,900" style="fill:rgb(72,73,77)"/>
<polygon points="233,914 260,1045 374,1000" style="fill:rgb(93,96,103)"/>
<polygon points="406,1076 515,1157 475,1094" style="fill:rgb(124,124,127)"/>
<polygon points="673,1082 800,954 734,990" style="fill:rgb(123,126,134)"/>
<polygon points="734,990 800,954 631,900" style="fill:rgb(107,110,117)"/>
<polygon points="475,1094 515,1157 545,1080" style="fill:rgb(124,124,129)"/>
<polygon points="261,1116 515,1157 406,1076" style="fill:rgb(138,136,136)"/>
<polygon points="515,1157 553,1154 545,1080" style="fill:rgb(142,142,145)"/>
<polygon points="529,575 360,523 503,743" style="fill:rgb(117,118,124)"/>
<polygon points="260,1045 283,1086 374,1000" style="fill:rgb(132,135,142)"/>
<polygon points="529,575 474,489 360,523" style="fill:rgb(130,135,142)"/>
<polygon points="608,357 575,609 680,646" style="fill:rgb(225,226,228)"/>
<polygon points="397,325 325,503 360,523" style="fill:rgb(180,181,184)"/>
<polygon points="360,523 325,503 431,779" style="fill:rgb(207,208,209)"/>
<polygon points="800,954 866,766 631,900" style="fill:rgb(108,110,119)"/>
<polygon points="851,681 818,634 762,674" style="fill:rgb(134,135,140)"/>
<polygon points="762,674 818,634 680,646" style="fill:rgb(212,210,206)"/>
<polygon points="260,1045 261,1116 283,1086" style="fill:rgb(190,192,197)"/>
<polygon points="283,1086 261,1116 406,1076" style="fill:rgb(127,128,134)"/>
<polygon points="119,889 261,1116 260,1045" style="fill:rgb(216,217,219)"/>
<polygon points="866,766 851,681 762,674" style="fill:rgb(121,121,126)"/>
<polygon points="800,954 878,767 866,766" style="fill:rgb(167,169,177)"/>
<polygon points="866,766 878,767 851,681" style="fill:rgb(184,185,189)"/>
<polygon points="325,503 119,889 233,914" style="fill:rgb(229,231,232)"/>
<polygon points="233,914 119,889 260,1045" style="fill:rgb(153,154,159)"/>
<polygon points="800,954 899,768 878,767" style="fill:rgb(206,208,211)"/>
<polygon points="878,767 899,768 851,681" style="fill:rgb(211,212,216)"/>
<polygon points="899,768 830,594 851,681" style="fill:rgb(217,218,222)"/>
<polygon points="851,681 830,594 818,634" style="fill:rgb(208,209,214)"/>
<polygon points="818,634 830,594 680,646" style="fill:rgb(203,205,209)"/>
<polygon points="397,325 279,403 325,503" style="fill:rgb(212,213,217)"/>
<polygon points="325,503 0,813 119,889" style="fill:rgb(227,228,230)"/>
<polygon points="397,325 360,523 474,489" style="fill:rgb(109,112,121)"/>
<polygon points="830,594 608,357 680,646" style="fill:rgb(225,226,229)"/>
<polygon points="279,403 0,813 325,503" style="fill:rgb(227,228,232)"/>
<polygon points="119,889 0,1333 261,1116" style="fill:rgb(223,224,227)"/>
<polygon points="608,357 397,325 474,489" style="fill:rgb(119,124,135)"/>
<polygon points="1000,1333 1000,945 800,954" style="fill:rgb(224,225,227)"/>
<polygon points="800,954 1000,945 899,768" style="fill:rgb(223,224,226)"/>
<polygon points="899,768 1000,0 830,594" style="fill:rgb(225,226,229)"/>
<polygon points="1000,1333 800,954 673,1082" style="fill:rgb(221,222,224)"/>
<polygon points="403,288 369,297 397,325" style="fill:rgb(144,135,122)"/>
<polygon points="397,325 369,297 279,403" style="fill:rgb(184,185,190)"/>
<polygon points="471,244 403,288 397,325" style="fill:rgb(133,129,126)"/>
<polygon points="608,357 471,244 397,325" style="fill:rgb(125,132,144)"/>
<polygon points="403,288 484,202 369,297" style="fill:rgb(207,211,215)"/>
<polygon points="608,357 484,202 471,244" style="fill:rgb(175,177,184)"/>
<polygon points="471,244 484,202 403,288" style="fill:rgb(183,188,195)"/>
<polygon points="1000,0 484,202 608,357" style="fill:rgb(227,228,232)"/>
<polygon points="515,1157 1000,1333 553,1154" style="fill:rgb(222,223,225)"/>
<polygon points="553,1154 1000,1333 673,1082" style="fill:rgb(221,222,224)"/>
<polygon points="0,1333 1000,1333 515,1157" style="fill:rgb(225,226,229)"/>
<polygon points="0,813 0,1333 119,889" style="fill:rgb(226,227,230)"/>
<polygon points="261,1116 0,1333 515,1157" style="fill:rgb(222,223,225)"/>
<polygon points="1000,945 1000,0 899,768" style="fill:rgb(226,227,230)"/>
<polygon points="830,594 1000,0 608,357" style="fill:rgb(226,227,230)"/>
<polygon points="1000,0 0,0 484,202" style="fill:rgb(228,229,232)"/>
<polygon points="484,202 0,0 369,297" style="fill:rgb(231,232,235)"/>
<polygon points="369,297 0,0 279,403" style="fill:rgb(229,229,232)"/>
<polygon points="279,403 0,0 0,813" style="fill:rgb(229,230,233)"/>
</svg>